<svg width="1559" height="1686" viewBox="0 0 1559 1686" fill="none" xmlns="http://www.w3.org/2000/svg">
<path d="M249.484 535.626C228.985 528.191 222.753 501.859 237.757 486.069C243.188 480.353 455.813 353.764 466.499 349.884C496.107 339.134 521.113 379.59 498.154 401.095C494.823 404.215 277.647 532.736 270.875 535.595C265.708 537.776 255.454 537.791 249.484 535.626ZM549.758 358.891C529.631 349.749 526.05 321.195 543.253 307.015C568.703 286.037 604.576 309.623 593.776 340.233C587.913 356.85 565.853 366.201 549.758 358.891Z" fill="#FDFDC9"/>
<path d="M134.832 582.738C137.046 519.395 176.725 450.873 230.832 414.239C242.497 405.911 647.011 171.553 671.832 158.738C734.153 126.564 809.106 123.232 874.832 151.739C886.422 156.766 1305.04 398.068 1323.33 410.239C1380.05 447.973 1420.39 513.867 1426.83 582.239L1425.33 593.239L1421.33 590.239C1407.95 579.987 1390.48 568.724 1377.83 561.239C1303.27 517.128 950.937 313.558 936.498 306.625C835.46 258.11 717.877 259.224 616.497 309.658C606.231 314.765 597.302 319.457 596.655 320.084C595.989 320.73 596.332 328.239 592.332 315.739C581.261 293.523 548.203 293.509 535.832 316.239C530.754 325.568 531.834 339.431 537.332 347.739L540.832 352.239L524.897 361.439C516.815 366.088 509.439 370.655 508.505 371.589C507.13 372.964 506.419 374.51 505.832 371.589C501.082 357.648 480.731 344.187 465.332 350.739C458.328 353.719 241.757 482.549 238.332 485.739C230.155 495.578 227.332 509.239 232.832 521.239C233.832 523.739 239.332 529.239 238.832 529.239C238.53 529.471 222.264 536.319 206.497 545.35C173.843 564.056 159.778 572.948 144.737 584.398L134.191 592.425L134.832 582.738Z" fill="#FBD940"/>
<path d="M1.72534 600.072C3.72094 473.37 67.4407 358.921 171.832 294.537C193.09 281.426 605.167 44.0803 616.806 38.2432C719.291 -13.1518 841.973 -12.7211 944.499 39.3937C971.622 53.1802 1382.88 290.745 1399.83 302.419C1500.68 371.863 1559.97 486.291 1558.21 608.072L1557.83 634.072L1552.73 608.738C1529.3 492.327 1469.38 412.644 1356.5 347.798C1341.83 339.372 1308.53 320.172 1282.5 305.13C1220.62 269.374 980.707 130.872 961.856 120.019C861.44 62.2062 735.154 56.2098 628.742 104.202C614.013 110.844 605.765 115.293 573.166 134.18C563.999 139.49 515.699 167.37 465.832 196.135C415.966 224.899 369.766 251.555 363.166 255.371C356.566 259.186 311.866 284.985 263.832 312.702C150.437 378.134 141.431 384.158 109.345 416.022C55.4426 469.552 22.1703 532.568 6.5345 610.738C4.26092 622.105 2.12826 632.005 1.79527 632.738C1.46227 633.472 1.43078 618.772 1.72534 600.072Z" fill="#EFB246"/>
<path d="M1.34564 737.469L1.16406 636.865L5.91994 613.469C22.5365 531.725 54.7353 470.254 109.343 416.023C141.429 384.158 150.435 378.135 263.831 312.702C311.864 284.986 356.564 259.187 363.164 255.371C369.764 251.556 415.964 224.9 465.831 196.135C515.697 167.371 563.997 139.491 573.164 134.18C605.764 115.294 614.012 110.845 628.74 104.202C735.152 56.2103 861.438 62.2067 961.854 120.019C980.705 130.872 1220.61 269.374 1282.5 305.13C1308.53 320.172 1341.83 339.373 1356.5 347.799C1469.9 412.944 1528.9 491.681 1553.05 610.109L1558.5 636.812L1558.3 737.442C1558.19 792.789 1557.63 842.438 1557.33 840.238C1545.39 751.804 1501.35 660.14 1438.74 604.626L1425.53 592.906L1424.78 581.456C1420.37 513.356 1375.04 441.66 1312.76 404.273C1276.79 382.682 894.041 162.364 882.497 156.606C807.427 119.166 731.741 124.53 646.859 173.306C422.294 302.349 238.27 409.495 227.528 417.458C175.074 456.338 139.279 520.037 134.884 582.321L134.108 593.309L121.727 604.233C57.1242 661.238 18.314 736.005 2.07545 834.739C1.77393 836.572 1.44551 792.801 1.34564 737.469Z" fill="#EFAD2B"/>
<path d="M760.5 1384.24C713.394 1381.82 659.715 1367.74 617.833 1346.83C611.233 1343.53 556.933 1312.6 497.167 1278.1C437.4 1243.59 375 1207.58 358.5 1198.08C173.965 1091.78 166.958 1087.62 146.167 1072.06L134.5 1063.32L134.527 827.905L132.332 710.738L133.832 591.986L145.332 583.486C177.067 559.841 235.072 525.727 238.832 528.986C248.054 536.978 263.009 539.666 273.832 533.986C289.34 525.848 495.171 403.928 498.332 400.986C503.558 396.122 505.965 390.038 506.832 380.238L506.332 372.738L515.332 366.738L524.332 361.739L540.332 352.239L545.332 356.239C566.832 368.739 592.214 356.324 595.332 329.238L594.832 320.739L605.832 315.238C690.332 267.739 793.614 256.73 886.332 286.738C936.114 301.23 924.265 298.161 1168.98 439.417C1385.27 564.263 1395.16 570.109 1414.14 584.288L1425.11 592.487L1426.33 828.486V1062.49L1413.5 1072.04C1393.47 1086.91 1388.8 1089.71 1264.5 1161.44C1197.77 1199.95 1105.97 1252.96 1060.5 1279.23C1015.03 1305.51 969.451 1331.69 959.206 1337.41C897.892 1371.67 829.51 1387.78 760.5 1384.24Z" fill="#FABA03"/>
<path d="M750.64 1553.74C699.797 1545.98 704.983 1549.17 449.64 1401.74C176.14 1246.74 182.943 1249.71 151.332 1184.74C126.169 1133.02 130.14 1139.24 133.823 833.572L134.131 592.238L134.803 827.827L135.64 1062.74L144.14 1069.74C162.878 1084.36 178.435 1093.93 358.809 1197.83C375.309 1207.33 437.709 1243.34 497.475 1277.85C612.806 1344.43 621.391 1349.12 645.534 1358.65C748.449 1399.27 862.403 1391.06 959.64 1336.74C969.885 1331.01 1015.34 1305.26 1060.81 1278.99C1106.28 1252.71 1197.91 1198.24 1264.64 1159.74C1378.29 1094.17 1401.5 1081.73 1418.14 1068.58L1425.48 1063.24V827.778L1426.15 592.238L1426.46 833.572C1426.78 1082.26 1426.44 1101.87 1421.43 1126.48C1409.77 1183.69 1377.15 1236.78 1330.64 1270.24C1318.05 1279.29 894.821 1524.79 877.14 1533.24C840.474 1550.76 788.356 1559.5 750.64 1553.74Z" fill="#FCAA02"/>
<path d="M109.832 1042.74C53.7011 987.011 13.8551 908.956 5.76189 843.171C5.2364 838.899 4.20027 835.015 3.45937 834.539C-0.227257 832.171 14.1207 773.008 25.5373 743.501C44.832 688.738 89.1647 629.266 127.539 598.959L133.832 593.238V711.738V829.238C133.832 958 132.19 1065.74 131.832 1065.74C131.474 1065.74 121.466 1054.29 109.832 1042.74ZM1425.83 828.238C1425.83 641.873 1424 591.952 1425.33 592.738C1456.75 611.28 1516.83 691.738 1534.91 745.404C1547.83 775.738 1559.79 831.996 1556.33 834.238C1555.89 835.471 1554.48 838.704 1553.97 842.738C1547.67 892.705 1516.47 961.879 1478.8 1009.4C1469.33 1024.24 1428.55 1062.74 1426.13 1062.74C1425.25 1062.74 1425.83 982.686 1425.83 828.238ZM1.47656 841.404C1.47656 838.838 1.75096 837.788 2.08633 839.071C2.4217 840.354 2.4217 842.454 2.08633 843.738C1.75096 845.021 1.47656 843.971 1.47656 841.404Z" fill="#EE9B09"/>
<path d="M760.667 1611.54C718.27 1609.81 675.282 1600.01 634.667 1582.79C615.587 1574.7 605.675 1569.27 527.333 1523.99C465.721 1488.37 373.595 1435.19 303.333 1394.67C203.241 1336.95 167.137 1315.71 156.277 1308.15C79.6395 1254.81 24.5765 1171.08 6.65122 1080.62C2.55011 1059.93 2.34579 1059.36 1.27435 1065.74C0.125253 1072.58 -0.284797 854.855 0.856613 843.934C1.83203 822.738 4.1849 827.599 5.33203 837.738C12.6782 902.67 53.754 987.188 110.332 1043.24L121.332 1054.24L131.832 1065.74L132.388 1085.8C135.452 1165.36 172.079 1233.14 234.667 1275.06C254.725 1288.5 669.929 1527.61 684 1533.83C745.007 1560.79 816.062 1560.52 875.451 1533.09C889.247 1526.72 1308.9 1284.57 1324 1274.27C1385.85 1232.07 1422.31 1163.99 1424.96 1085.74L1425.72 1063.07L1432.97 1057.07C1490.74 1009.28 1544.17 913.239 1552.81 843.405C1553.92 833.852 1556.17 831.239 1556.47 842.739C1557.66 852.61 1557.28 1066.46 1556.09 1062.41C1555.25 1059.58 1557.4 1060.46 1556 1067.24C1550.38 1106.57 1539.72 1125.04 1528.62 1151.2C1499.89 1218.89 1447.98 1279.77 1386.67 1317.65C1377.72 1323.18 1108.71 1478.77 976.676 1554.79C899.245 1599.37 840.558 1614.79 760.667 1611.54ZM1.33334 1123.07C1.33334 1122.71 1.63334 1122.41 2 1122.41C2.36667 1122.41 2.66667 1122.71 2.66667 1123.07C2.66667 1123.44 2.36667 1123.74 2 1123.74C1.63334 1123.74 1.33334 1123.44 1.33334 1123.07ZM0 1107.07C0 1106.71 0.300002 1106.41 0.666672 1106.41C1.03334 1106.41 1.33334 1106.71 1.33334 1107.07C1.33334 1107.44 1.03334 1107.74 0.666672 1107.74C0.300002 1107.74 0 1107.44 0 1107.07ZM1556 1107.07C1556 1106.71 1556.3 1106.41 1556.67 1106.41C1557.03 1106.41 1557.33 1106.71 1557.33 1107.07C1557.33 1107.44 1557.03 1107.74 1556.67 1107.74C1556.3 1107.74 1556 1107.44 1556 1107.07Z" fill="#F09308"/>
<path d="M744.498 1683.98C699.909 1679.39 655.056 1666.43 616.1 1646.87C599.584 1638.58 175.823 1393.95 163.249 1385.45C59.4646 1315.27 -8.74133 1182.16 1.76398 1070.31C2.99179 1057.23 3.41153 1057.72 7.15056 1076.53C25.7766 1170.25 79.7614 1253.09 157.442 1307.15C168.301 1314.71 204.406 1335.95 304.498 1393.67C397.105 1447.07 469.144 1488.69 529.164 1523.46C632.943 1583.57 658.62 1595.04 710.966 1604.66C805.635 1622.06 885.806 1606.77 977.841 1553.79C1109.87 1477.77 1378.88 1322.18 1387.83 1316.65C1472.08 1264.59 1532.16 1176.85 1552.5 1076.17C1554.34 1067.06 1556.1 1059.36 1556.41 1059.05C1559.48 1055.98 1558.61 1108.45 1555.21 1131.81C1539.63 1238.81 1476.74 1336.17 1387.83 1390.93C1356.32 1410.34 951.148 1643.15 937.831 1649.5C878.856 1677.62 807.048 1690.43 744.498 1683.98Z" fill="#E26A08"/>
</svg>
